/* XPM */
static char *_5371136d43d4502cbcf002635322d88U7OEML7Sngelfi1B[] = {
/* columns rows colors chars-per-pixel */
"48 48 128 2 ",
"   c None",
".  c #3F1D13",
"X  c #401E14",
"o  c #401F19",
"O  c #41221E",
"+  c #53271F",
"@  c #432421",
"#  c #492724",
"$  c #4D2926",
"%  c #422728",
"&  c #532B25",
"*  c #5D2F27",
"=  c #552E2A",
"-  c #5B312D",
";  c #47343B",
":  c #60342F",
">  c #6C362F",
",  c #653732",
"<  c #6C3731",
"1  c #643934",
"2  c #6C3A35",
"3  c #6D3D39",
"4  c #723B35",
"5  c #723E38",
"6  c #6F403B",
"7  c #7F453F",
"8  c #463740",
"9  c #463843",
"0  c #4D3B42",
"q  c #4C424F",
"w  c #4D4554",
"e  c #6A454C",
"r  c #6C4A4C",
"t  c #704440",
"y  c #764F4B",
"u  c #75514E",
"i  c #614954",
"p  c #6D4E57",
"a  c #6D4E58",
"s  c #66545C",
"d  c #6F515B",
"f  c #755553",
"g  c #7A5956",
"h  c #71585C",
"j  c #7B5C5A",
"k  c #7D605E",
"l  c #4F4F61",
"z  c #455067",
"x  c #4D5063",
"c  c #465268",
"v  c #4E586E",
"b  c #57576B",
"n  c #4F5C76",
"m  c #545F75",
"M  c #5C5F76",
"N  c #555F78",
"B  c #765B62",
"V  c #785D63",
"C  c #5D6276",
"Z  c #576279",
"A  c #5A647A",
"S  c #5E697E",
"D  c #7B6664",
"F  c #7D6C69",
"G  c #646576",
"H  c #64697C",
"J  c #786D71",
"K  c #7B7178",
"L  c #85453D",
"P  c #864942",
"I  c #904E47",
"U  c #99544B",
"Y  c #82565D",
"T  c #925E63",
"R  c #826866",
"E  c #827170",
"W  c #857877",
"Q  c #867978",
"!  c #8B7B7A",
"~  c #86807F",
"^  c #596783",
"/  c #5B6985",
"(  c #626C80",
")  c #64718A",
"_  c #677593",
"`  c #6B7592",
"'  c #6D7991",
"]  c #6E7E9E",
"[  c #727793",
"{  c #717C94",
"}  c #797894",
"|  c #707F9F",
" . c #6F7FA0",
".. c #778195",
"X. c #74819C",
"o. c #798498",
"O. c #6F80A0",
"+. c #7080A0",
"@. c #7D8AA6",
"#. c #7D8BA8",
"$. c #8D8382",
"%. c #838288",
"&. c #87898F",
"*. c #8D8B8C",
"=. c #938584",
"-. c #878990",
";. c #8E9197",
":. c #969493",
">. c #9A9190",
",. c #9A9998",
"<. c #A29E9D",
"1. c #878FA5",
"2. c #8A8FA5",
"3. c #8E94A6",
"4. c #8794AE",
"5. c #8895AF",
"6. c #8D98AE",
"7. c #9195A6",
"8. c #959CAD",
"9. c #8996B0",
"0. c #8F9BB3",
"q. c #909CB4",
"w. c #97A1B5",
"e. c #98A2B6",
"r. c #99A4BB",
"t. c #9DA8BE",
"y. c #A5A5A6",
"u. c #ABABAB",
/* pixels */
"                                                                                                ",
"                                                                                                ",
"                                                                                                ",
"                                                                                                ",
"                                                                                                ",
"                                                                                                ",
"                                        9.4.9.4.5.5.9.4.                                        ",
"                                        4.9.4.9.5.5.4.9.                                        ",
"                                      @.5.5.5.4.5.5.5.5.@.                                      ",
"                      5.5.5.9.4.9.@.A ' 5.5.5.4.5.5.9.5.' A @.9.5.4.5.5.5.                      ",
"                      5.5.5.5.5.9.@.Z ..r.r.r.r.r.r.r.e...A @.5.5.5.5.4.5.                      ",
"                    1.5.5.5.5.4.5.@.Z o.t.t.t.t.t.t.t.t.o.A @.9.5.5.5.5.5.@.                    ",
"z ' 4.5.5.5.5.5.@.Z ' 4.9.9.4.5.9.@.A ) +.#.#.@.@.@.@.@.) Z @.5.4.5.5.5.5.' Z @.9.5.5.5.5.4.' z ",
"z ' 4.5.5.5.5.9.@.A ..r.r.r.r.r.t.6.S ^ ] ] O.] ] ] ] ] ^ S 6.r.r.r.r.r.r...A @.9.5.5.4.5.4.' z ",
"z ' 4.5.5.5.5.9.@.Z ..r.t.t.t.t.t.6.S ^ ] ] ]  .] ] O.] ^ S 8.t.t.t.t.t.t...Z @.9.5.5.5.5.4.' z ",
"z ' 4.5.5.5.5.9.1.Z ) @.#.#.@.@.@.X.Z ^ ]  .] ] ]  .O.] / Z X.#.@.#.#.#.#.) Z 1.9.5.5.5.5.5.' z ",
"z X.e.t.r.e.r.t.5.S ^ ] ] ] ] ] O._ n / ] | | ] X. .| | / n _  .] ] ] ] ] ^ A 6.r.r.r.r.r.r...c ",
"z X.t.t.t.t.t.t.8.S ^ | ] ] ] | O._ v A _ _ ` _ _ _ _ _ N b _  .| ] ] ] ] ^ S q.t.t.t.t.t.r.o.z ",
"z ) +.#.#.#.@.#.| m / { ] ] | ] O._ w 9 w q q w q q q w 9 w _ ] | ] | | ] / Z X.#.@.@.@.#.@.) z ",
"z / ] ] ] ] ]  ._ l l M M N M N C b ; X . . . . . X X X . ; b C M M M N M w c _  .] ] ] O.] / z ",
"z / X.+.]  .]  ._ w O % % % % % % % @ @ @ O @ @ @ @ @ O @ @ % % % % % % @ O q _  . .]  .] ] / z ",
"z / ] |  . .]  ._ 0 . @ O O O O O O @ O O @ O @ @ O @ @ @ @ O O O O O O O . q _  .] ]  .] ] ^ z ",
"z n ^ ^ ^ ^ ^ ^ N 9 . @ O @ @ @ O @ $ # @ $ $ $ $ $ $ @ # $ O O @ O @ O @ . 9 N / ^ ^ ^ ^ ^ n z ",
"z Z ( ( ( ( ( ( G 0 O % # @ @ @ @ $ = $ % = = - - = = % $ = # @ @ @ @ # % @ 0 C ( ( ( ( ( ( m z ",
"z ..e.e.e.e.e.r.3.s & = = $ @ = = = - $ % = - - - - = @ & - = = & @ $ = = & s 3.e.e.e.e.e.e...c ",
"z ' 0.0.0.0.0.0.1.s + - - $ % : , , , - = : , , , , , = - , , , : $ $ - - & s 1.q.q.q.q.q.q.{ c ",
"z / X.X.+.+.+.+.` i * - - & $ , 2 2 2 , : < 3 2 2 2 2 - , 2 2 2 , $ & - - * i ` +.+. .+.| | / z ",
"z / O.O.O.O.O.O.` a 2 3 2 , : 2 2 2 2 1 - 2 2 2 2 2 1 : , 2 2 3 2 - : 2 < < p ` O.+.| ] | | / z ",
"z / ] O. .] +. .{ K F E ~ D 1 , 3 2 2 , : 2 2 2 2 2 2 : , 3 2 2 1 , , 2 2 2 a [ +.] ] +.] ] / z ",
"z / ] ] | ] ]  .X.&.*.,.y.$.1 2 2 4 2 1 : < 2 2 2 2 1 : , 2 2 2 2 : , 2 2 < a ' O. .] ] ] ] / z ",
"z / ] ] ] ] ] ] | -.,.y.u.$.1 , 2 2 2 , - 2 2 2 2 3 < : 1 2 5 2 < : , 4 2 2 a ` ] ] ] ] | ] / z ",
"z n ^ ^ ^ ^ ^ / H J ! =.=.D 1 2 2 2 2 2 , 2 2 5 2 2 2 , , 2 2 2 2 : , 2 > > e C ^ ^ / / ^ ^ n z ",
"z Z S H ( ( ( ( G r 2 6 6 1 : 2 2 4 2 1 , < 3 2 2 3 2 , , 2 2 2 2 : , t g y r G ( ( ( ( ( H m z ",
"z ..e.e.e.r.e.e.7.B > 4 2 , : < 3 2 2 , : 2 2 2 2 2 2 - , 5 2 2 2 , : g >.! V 7.r.e.e.e.e.e...z ",
"z ..0.0.0.q.q.0.3.B > 2 2 1 : 2 2 2 2 , : 2 2 2 2 2 < , , 2 2 2 < , * V <.=.V 1.q.q.q.q.q.q.{ c ",
"z / O.+.+.+.+.O.` a < 2 2 , - 2 2 3 2 < : 1 2 2 2 2 2 - , 2 2 2 1 - > Y <.=.d `  . . .+.+.+./ z ",
"z / ] ] ] X.] O.` p > 2 2 , , 2 2 2 2 , : < 5 2 2 2 1 , , 2 3 5 2 - : Y <.~ f `  . . .] X.] / z ",
"z / ] ]  . . .O.` p 2 4 2 1 - < 2 3 3 , : 2 2 3 3 2 2 : 1 2 2 2 2 , : k y.=.d ' +.] | |  .] / z ",
"z / +.]  .] ] O.[ p 2 2 2 , , 2 2 2 2 , : 2 2 2 2 2 2 : , 2 2 2 < - : Y <.~ Y [ O.] ] ] ] | / z ",
"z / ] ] ] ] ] ] ` p 2 2 2 , : 1 2 2 2 , , 1 2 2 2 5 < : , 2 2 2 1 , : j <.~ g [ ] ] ] ] ] | / z ",
"z n ^ ^ ^ ^ ^ ^ G e < < < : - 2 5 2 2 1 : 2 2 3 2 2 2 , 1 2 2 3 2 : , y ! R p C / / / / ^ ^ m z ",
"z Z / H ( ( ( ( G h u f j r , < 2 2 2 1 , < 2 2 2 2 < - , 2 5 2 < : , 2 5 2 e G ( ( ( ( ( / m z ",
"z ..e.r.r.e.e.r.8.&.! *.,.Q 1 1 2 2 4 , - 2 2 2 3 2 2 : 1 2 2 2 2 - , 2 2 > B 7.e.r.e.e.e.e...z ",
"z ..0.0.0.0.0.0.8.;.:.y.u.$.1 < 2 2 2 1 : 2 2 2 2 2 2 - < 2 2 3 < , , 2 2 > h 2.0.0.0.q.q.6.{ z ",
"z / O.X.+.X. .O.X.%.:.<.<.Q 1 1 2 2 2 , : 2 2 2 2 2 2 - > 2 2 2 2 : , 2 2 > d [ +.+.+.+.X.] / z ",
"z / ] O.O.]  . .' B f k k r : 2 5 2 2 1 - 2 2 5 3 5 2 , 1 2 2 2 2 - 1 2 2 4 p [ O.| O.] O.] / z ",
"z / ] O.O.] O.O.[ Y L L L 5 1 L P P P 6 2 7 P P P P 7 1 6 P P P 7 1 5 P P L Y [ O.] +.]  . ./ z ",
"z ^ ] ] ] ] O.X.} T U U U 7 2 I U U U 7 2 I U U U U I 2 7 U U U I 2 7 U U U T } O.O.]  .] +./ z "
};
