/* XPM */
static char *_b502f012eb049a18900402401e653cfRoJqlC6tZPR9QED2[] = {
/* columns rows colors chars-per-pixel */
"48 48 214 2 ",
"   c None",
".  c #000100",
"X  c #000D0A",
"o  c #170706",
"O  c #00110E",
"+  c #011311",
"@  c #0D1311",
"#  c #141412",
"$  c #1A1412",
"%  c #360000",
"&  c #3E0C0A",
"*  c #26100E",
"=  c #39100E",
"-  c #231412",
";  c #2B1513",
":  c #331614",
">  c #3B1513",
",  c #3B1917",
"<  c #3D1A18",
"1  c #371817",
"2  c #510000",
"3  c #5F0F0E",
"4  c #451312",
"5  c #431B1A",
"6  c #4B1C1B",
"7  c #4D1615",
"8  c #541413",
"9  c #551817",
"0  c #561B1A",
"q  c #5B1D1C",
"w  c #5C1716",
"e  c #4B0D0B",
"r  c #6B0101",
"t  c #7B0303",
"y  c #6C1A19",
"u  c #651615",
"i  c #7C1616",
"p  c #721B1B",
"a  c #7E1B1B",
"s  c #761515",
"d  c #49201F",
"f  c #59201F",
"g  c #4C2524",
"h  c #4D2827",
"j  c #522827",
"k  c #542A29",
"l  c #5A2524",
"z  c #4F3B3B",
"x  c #652221",
"c  c #6D2322",
"v  c #662C2C",
"b  c #742424",
"n  c #7C2323",
"m  c #7D2827",
"M  c #7C2929",
"N  c #772A29",
"B  c #6E3635",
"V  c #743938",
"C  c #643B2D",
"Z  c #7D5415",
"A  c #6F4E2F",
"S  c #564E4E",
"D  c #735656",
"F  c #840605",
"G  c #930000",
"H  c #821D1D",
"J  c #851616",
"K  c #991A1A",
"L  c #9A0F10",
"P  c #A91B1B",
"I  c #842322",
"U  c #8B2323",
"Y  c #832C2B",
"T  c #8D2B2B",
"R  c #922525",
"E  c #942C2C",
"W  c #9B2B2B",
"Q  c #9C2020",
"!  c #833333",
"~  c #8C3333",
"^  c #8B3C3B",
"/  c #913333",
"(  c #9C3434",
")  c #943B3B",
"_  c #9B3C3C",
"`  c #A22D2D",
"'  c #A82F2F",
"]  c #B02828",
"[  c #A33434",
"{  c #AD3434",
"}  c #A43A3A",
"|  c #A93B3B",
" . c #A33837",
".. c #B13636",
"X. c #B33A3A",
"o. c #BC3C3C",
"O. c #C23E3E",
"+. c #8E403F",
"@. c #B5403F",
"#. c #926A31",
"$. c #A06F2B",
"%. c #874140",
"&. c #874746",
"*. c #934343",
"=. c #954C4C",
"-. c #9A4947",
";. c #935353",
":. c #905A58",
">. c #8E5757",
",. c #A34343",
"<. c #AC4141",
"1. c #AE4D4D",
"2. c #B24444",
"3. c #BC4343",
"4. c #B34B4B",
"5. c #BD4B4B",
"6. c #AA5555",
"7. c #B55353",
"8. c #BC5252",
"9. c #B85B5B",
"0. c #8B725D",
"q. c #A36D53",
"w. c #986E6E",
"e. c #B36E6E",
"r. c #A16D6D",
"t. c #C44343",
"y. c #C34D4D",
"u. c #C94A4A",
"i. c #D14E4E",
"p. c #C45353",
"a. c #C55E5E",
"s. c #CC5C5C",
"d. c #CA5151",
"f. c #D35454",
"g. c #D25D5D",
"h. c #D85E5E",
"j. c #E05E5E",
"k. c #C7605F",
"l. c #C96868",
"z. c #D46161",
"x. c #DE6363",
"c. c #D26E6E",
"v. c #DB6968",
"b. c #CB7675",
"n. c #C17070",
"m. c #DA7474",
"M. c #E36464",
"N. c #E36C6C",
"B. c #EC6C6C",
"V. c #E96767",
"C. c #F06F6F",
"Z. c #EC7171",
"A. c #E47B7B",
"S. c #F27171",
"D. c #F07979",
"F. c #BE883F",
"G. c #C38A3C",
"H. c #B68A6E",
"J. c #DB9B48",
"K. c #E4A24B",
"L. c #C99867",
"P. c #DFA970",
"I. c #E7B073",
"U. c #9C8885",
"Y. c #B58888",
"T. c #A99C9A",
"R. c #B69898",
"E. c #AC8888",
"W. c #B7AAA0",
"Q. c #DB9494",
"!. c #D59797",
"~. c #CE9292",
"^. c #E78080",
"/. c #EC8484",
"(. c #E88F8F",
"). c #E68E8E",
"_. c #F28686",
"`. c #F38A8A",
"'. c #E29797",
"]. c #ED9C9C",
"[. c #E29898",
"{. c #D9A795",
"}. c #D6A4A4",
"|. c #DAB9B9",
" X c #D1B9B9",
".X c #CCB4AA",
"XX c #ECACAB",
"oX c #F4AFAF",
"OX c #F6A2A2",
"+X c #EEBDBD",
"@X c #EBB9B9",
"#X c #F5B5B5",
"$X c #F8B5B5",
"%X c #F4B8B9",
"&X c #EBC8A8",
"*X c #E9C6BC",
"=X c #D8CAC9",
"-X c #DAD5D4",
";X c #F8C2C2",
":X c #E6D8D6",
">X c #FAD5D5",
",X c #F5DADA",
"<X c #FBDDDD",
"1X c #F4D9D5",
"2X c #F1CECC",
"3X c #F5E6D9",
"4X c #EEE1D8",
"5X c #F3E7E7",
"6X c #FEECEC",
"7X c #F8EAE9",
"8X c #F7F7F7",
"9X c #FDF5F5",
"0X c #FFFEFE",
"qX c #FDF8F5",
/* pixels */
"                                                                                                ",
"                                                                                                ",
"                                                                                                ",
"                                      Z $.G.J.K.K.J.F.#.A                                       ",
"                                    0.0.H.L.P.I.I.P.L.q.A C                                     ",
"                                  U.T.W..X.X&X&X&X&X{.H.q.*.V                                   ",
"                                :.T. X-X:X4X3X3X3X3X+X[.b.6.+.k                                 ",
"                              t ;.R.=X5XqXqXqXqXqX7X>XOXL.p.) j X                               ",
"                              t =.Y.|.,X6X0X0X9X6X<X;X].Z.8.^ g X                               ",
"                              t +.e.!.%X>X6X9X6X>X#XOXL.h.2.Y d +                               ",
"                              i ~ 1.c.).%X,X5X,X%X).N.g.5.} M 5 +                               ",
"                                T  .5.n.~.|.=X|.!.c.y.@.[ T c 5                                 ",
"                                  T ^ =.r.E.R.Y.e.1. .T M c f                                   ",
"                                    l v V &.;.=.*./ m x 6 5                                     ",
"                                    & e r F G L K R n q ; +                                     ",
"                                    u u J K P ] ] ' T x : +                                     ",
"                                    T ~ ,.7.a.a.d.3.[ Y l ,                                     ",
"                                  W | 4.n.~.!.Q.m.g.5._ Y c q                                   ",
"                                T | y.c.Q.@X2X+X].m.f.3.| T c ,                                 ",
"                              T _ 7.c.).%X,X5X>XoX^.M.i.o.[ m l <                               ",
"                            W | 7.b.[.%X>X6X9X<X$X_.V.i.t.{ E Y c 6                             ",
"                          T [ y.c.'.+X,X6X9X9X<X$X_.M.i.u.o.{ [ T c >                           ",
"                        T _ 7.c.).#X>X6X0X0X9X<X$X_.M.i.t.O.t.3.| ~ v h                         ",
"                      W  .7.b.'.#X>X6X0X0X0X0X<X$X/.x.u.3.3.u.f.p.1.-.%.B                       ",
"                    T  .y.c.'.+X<X6X9X0X0X0X9X<X#X/.h.3.| 3.g.x.v.z.a.6.%.g                     ",
"                  T _ 7.c.(.%X>X6X0X0X0X0X0X9X<XoX^.g.@._ <.s.N.B.Z.N.k.-.B g                   ",
"                ( ,.9.b.[.#X>X6X0X0X0X0X0X0X9X<XoXm.d.[ / } 5.z.v.Z.Z.v.9.,.&.B                 ",
"              T | p.c.Q.+X<X6X9X0X0X0X0X0X0X8X,XXXc.3.` T T _ 4.s.N.Z.N.v.k.7.%.j               ",
"            i T <.f.^.oX1X6X0X0X0X0X0X0X0X0X8X,X}.l.{ K I a I / 4.z.N.Z.Z.N.a.*.k X             ",
"            i E 2.g./.$X<X0X0X0X0X0X0X0X0X0X8X:X}.9.Q F p u u b ) 7.g.N.B.N.l.*.k X             ",
"            i ~ <.g./.$X<X0X0X0X0X0X0X0X0X0X8X:X}.:.J r w 4 4 0 N ) 4.s.N.N.l.-.j X             ",
"            i T @.g./.$X<X9X0X0X0X0X0X0X0X0X8X:XR.>.r 2 > - - > q b ~ 5.z.v.a.*.j X             ",
"            i E <.h./.#X<X9X0X0X0X0X0X0X0X0X8X-XT.D 2 % - + + - 1 7 b ,.s.g.8.+.g X             ",
"            i T <.g./.#X<X0X0X0X0X0X0X0X0X0X8X-XT.D % o $ + @ # * = q ~ 2.d.4.! d +             ",
"            s T <.g./.#X>X6X0X9X9X9X9X9X0X0X7X=XT.S o . # # # # @ $ 6 Y | o.| N 6 +             ",
"            u Y ,.g.D.OX;X<X<X<X<X<X<X<X<X<X1X XU.S . . # # # # + + < M [ X.[ M 5 +             ",
"            e v -.s.A.`.OXoX$X#X#X#X$X#X$X#XoX~.w.z . . # # # # + + , M [ X.[ M 5 +             ",
"            # l *.a.Z.D._._._._._._._._._._.^.n.;.k o X # # # $ @ $ 6 m [ ..[ N 5 +             ",
"            X g ^ p.x.V.C.S.S.S.S.S.S.C.B.B.j.p.) x > * # + + @ - > w n W [ E c , +             ",
"            O g ! 1.f.M.V.S.S.S.S.S.S.C.V.j.i.3.( b 9 > - + + $ > 8 y n R R I x 1 +             ",
"            + 5 N  .3.f.v.B.Z.Z.Z.Z.Z.Z.M.f.t.| W n u 7 > : 1 5 q p H H I a y 9 ; @             ",
"              5 c T | 2.p.z.x.v.V.V.V.x.g.y...` R H y u 9 q c n T E E E n y 9 4 ;               ",
"                q c M ~ _ 4.y.d.f.f.f.f.u.X.` R H H p p y I E [ [ ..{ E n w 4 :                 ",
"                  5 6 x N T  .X.t.t.t.t.X.W T H H H a H U E { o.o.O.X.W N 6 -                   ",
"                    - 4 8 y I W { ....{ ` R H a i H U R W ' o.O.o...[ E b 5                     ",
"                      ; 4 8 y I R W W Q R H H a a H R ` ..O.O.O.X.( Y b l                       ",
"                        - > 9 p H I H H H H a i H H W { O.O.t.o.[ Y f 1                         ",
"                        + ; 7 y i H H a a H H a i U W ..O.O.t.o.[ N < +                         "
};
