/* XPM */
static char *e40e396a53e74e3bfe6b7f8b787dfe255MiQ08419gCIWFKq[] = {
/* columns rows colors chars-per-pixel */
"48 48 13 1 ",
"  c None",
". c #141412",
"X c #261A26",
"o c #47280D",
"O c #463D35",
"+ c #432341",
"@ c #5F2E5C",
"# c #7C6C5E",
"$ c #804A1E",
"% c #F09A53",
"& c #932D8B",
"* c #CBC3BC",
"= c #FDFDFD",
/* pixels */
"                                                ",
"                                                ",
"                                                ",
"                                                ",
"                                                ",
"                                                ",
"                                                ",
"                                                ",
"                                                ",
"                                                ",
"                                                ",
"                                                ",
"                                                ",
"                   ......                       ",
"                  X&&&&&@.                      ",
"                  X@&&&&&&.                     ",
"                  XX@&&&&&&.                    ",
"                  X@&&&&&@@@.                   ",
"                  X&&&&&&&&&&.                  ",
"                 X$$$$$%%%%%%%.                 ",
"                XX$$$$$%%%%%%%%..               ",
"              XX@@@@@@@&@&&&&&&&&..             ",
"            XX@@@@@@@@@&@&&&&&&&&&&.            ",
"           X@@@@&&&&&&OOoo$$$##.....            ",
"           XXXXXXX######%%%%%##.                ",
"                 .====*$%%%%%..                 ",
"                 .====*%%%%%%.                  ",
"                 .====**%*===*.                 ",
"                .&&&@=**==$$$=.                 ",
"               .&&&&&@**======..                ",
"               .&&&&&@&&======..                ",
"               .&&&&&@&&======..                ",
"                .&&&@@&&======..                ",
"                 ..++@@&*=====.                 ",
"                  .+++@@&*===*.                 ",
"                   .o$$$%$%%%%.                 ",
"                   .o$$$%$%%%%.                 ",
"                  .++@@@@+++++.                 ",
"                  .@&&&&&&@@@@.                 ",
"                  .@&&&&&&@@@@@.                ",
"                 .@@&&&&&&@@@@@.                ",
"                 .@&&&&&&&@@@@@.                ",
"                .@@&&&&&&&&@@@@.                ",
"               .@@@&&&&&&&&@@@@.                ",
"              .@@@&&&&&&&&&&@...                ",
"              .@@@&&&&&&&&&&...                 ",
"              .@@@&&&&&&&&....                  ",
"               ..&&&&&&&&                       "
};
